<?xml version="1.0" encoding="UTF-8"?>
<svg version="1.1" xmlns="http://www.w3.org/2000/svg" width="437" height="439">
<path d="M0 0 C1.21790216 -0.00507454 2.43580433 -0.01014909 3.69061261 -0.0153774 C5.04409615 -0.01597906 6.39757974 -0.01647815 7.75106335 -0.01688576 C9.18750651 -0.02090138 10.62394855 -0.02533977 12.06038922 -0.03016531 C16.01294265 -0.04212613 19.96548387 -0.04777816 23.91805184 -0.05234647 C28.1793934 -0.05830466 32.44072039 -0.06991419 36.70205212 -0.08063698 C46.99791059 -0.10515956 57.29377388 -0.11978975 67.58965257 -0.13269705 C70.49887683 -0.13640967 73.40810061 -0.14038286 76.3173244 -0.14444971 C94.3908686 -0.16969152 112.46441356 -0.19174043 130.5379715 -0.20417786 C134.72449592 -0.20710747 138.91102031 -0.21006914 143.09754467 -0.21308327 C144.13806318 -0.21382932 145.17858169 -0.21457537 146.25063106 -0.21534403 C163.09206297 -0.22798729 179.93338906 -0.26119619 196.77477155 -0.3028851 C214.07433115 -0.34535616 231.37383667 -0.36887903 248.67344826 -0.37409842 C258.38282634 -0.37750712 268.09203919 -0.38919808 277.80136585 -0.42220116 C286.07382487 -0.45027422 294.34608477 -0.46116936 302.61858771 -0.4500057 C306.8352128 -0.44483716 311.05142141 -0.44758726 315.26798534 -0.47247124 C319.13807771 -0.49511846 323.0074582 -0.49410575 326.87756433 -0.47526737 C328.92023339 -0.47118544 330.96290784 -0.49149826 333.00546724 -0.51305425 C346.72072825 -0.39673915 358.35563426 3.41808076 369.08362865 12.13701439 C369.90605053 12.75576439 370.7284724 13.37451439 371.57581615 14.01201439 C374.31321348 16.33155355 376.39378194 18.73311117 378.58362865 21.57451439 C379.6819099 22.9647683 379.6819099 22.9647683 380.80237865 24.38310814 C387.36508088 34.31830544 388.81887985 44.5541552 388.71854687 56.20390892 C388.72432126 57.68255188 388.73227116 59.16118764 388.74218309 60.63980865 C388.76289927 64.66730165 388.75281156 68.6941961 388.737252 72.72169018 C388.72587938 77.07898217 388.74343033 81.43617549 388.7571516 85.79344749 C388.7793258 94.31523487 388.77460885 102.83680143 388.7600884 111.35859728 C388.74877318 118.28754194 388.74727511 125.21642494 388.75270748 132.14537621 C388.75347365 133.13344076 388.75423981 134.12150532 388.75502919 135.13951123 C388.7566279 137.1470628 388.75824897 139.15461435 388.75989215 141.16216588 C388.77413261 159.96464818 388.75778368 178.76700837 388.73089032 197.56947064 C388.7085531 213.6851453 388.71243371 229.80063985 388.73548412 245.91631126 C388.76227224 264.6538311 388.77275947 283.39124405 388.7574228 302.12878036 C388.75583014 304.12873775 388.75425829 306.12869515 388.75270748 308.12865257 C388.7519361 309.11253995 388.75116473 310.09642733 388.75036997 311.11012948 C388.74606201 318.02668975 388.75332001 324.94318194 388.76510525 331.85973167 C388.77916228 340.29455854 388.77526315 348.7291529 388.74870153 357.1639533 C388.73560631 361.46339995 388.73033709 365.76245966 388.74694729 370.061903 C388.76194972 374.00496852 388.75349141 377.9472919 388.72705953 381.89029098 C388.72151777 383.30936322 388.72421713 384.7284994 388.73643847 386.14752984 C388.86012965 401.71512985 384.05274871 412.57021033 373.58362865 423.82451439 C372.75862865 424.58763939 371.93362865 425.35076439 371.08362865 426.13701439 C370.58476147 426.6178347 370.08589428 427.09865501 369.5719099 427.59404564 C362.68575255 433.93444693 354.50249911 438.24836882 345.07445526 438.28240871 C343.81039331 438.28933335 342.54633135 438.29625799 341.24396449 438.30339247 C339.83320435 438.30606717 338.42244399 438.30863305 337.01168346 438.31110191 C335.51906833 438.31726329 334.02645486 438.32383928 332.53384322 438.33079571 C328.42134548 438.34861152 324.30885081 438.36004623 320.19632828 438.37035239 C316.6712554 438.37998372 313.14620025 438.39329642 309.62113968 438.40662134 C296.99017303 438.45423748 284.3591812 438.48686814 271.7281599 438.51592064 C270.23235034 438.51938201 270.23235034 438.51938201 268.7063224 438.52291331 C248.89993321 438.56836624 229.09353291 438.60688114 209.28710938 438.63364315 C204.93095225 438.63963218 200.57479527 438.64571782 196.21863842 438.65190697 C194.59460296 438.65420644 194.59460296 438.65420644 192.93775871 438.65655237 C175.41788354 438.68223892 157.89824959 438.73909369 140.37849835 438.80837227 C122.38401254 438.87893881 104.38965119 438.91909221 86.39502925 438.93039268 C76.29481048 438.93754135 66.1950103 438.95819462 56.0949297 439.0134201 C47.48826957 439.06044649 38.88209107 439.08009291 30.2753071 439.06453861 C25.88820388 439.0574566 21.50213062 439.06305168 17.11519146 439.10411644 C-16.5636408 439.40319414 -16.5636408 439.40319414 -28.91637135 430.13701439 C-29.66016639 429.62805909 -30.40396143 429.11910379 -31.17029572 428.59472561 C-39.60527495 422.54390207 -46.13729018 412.025323 -48.91637135 402.13701439 C-49.4758146 397.15342372 -49.45795109 392.19092468 -49.42430592 387.18291283 C-49.42892116 385.67997574 -49.43527825 384.17704317 -49.44321489 382.67411995 C-49.45984592 378.56572251 -49.45169043 374.45769881 -49.43927002 370.34930038 C-49.43019621 365.91022706 -49.44420079 361.47121669 -49.4551897 357.03215599 C-49.47295468 348.34455156 -49.46914396 339.65708555 -49.45753914 330.96947575 C-49.44849714 323.9074312 -49.44728414 316.84542537 -49.45163441 309.78337669 C-49.45224734 308.77738733 -49.45286027 307.77139797 -49.45349178 306.73492408 C-49.45477071 304.69112872 -49.45606756 302.64733337 -49.45738214 300.60353804 C-49.46878202 281.4492305 -49.45568352 262.2949996 -49.43418068 243.14070463 C-49.41631024 226.71365493 -49.41941452 210.2867183 -49.43785572 193.85967064 C-49.45927288 174.77282538 -49.46768344 155.68604726 -49.45540667 136.59919167 C-49.4541325 134.56301182 -49.45287502 132.52683196 -49.45163441 130.49065208 C-49.45070875 128.98798338 -49.45070875 128.98798338 -49.4497644 127.45495772 C-49.44631404 120.40328148 -49.45213308 113.35164789 -49.46155262 106.29997826 C-49.47278337 97.70362865 -49.46970991 89.10742511 -49.44842964 80.51109219 C-49.43793373 76.12702523 -49.43377246 71.74320161 -49.44702625 67.35913658 C-49.45898631 63.34219099 -49.45232853 59.32571319 -49.43111604 55.30880976 C-49.42666522 53.85941607 -49.42888195 52.40998249 -49.4386192 50.96061468 C-49.53147121 35.98557282 -45.09494452 25.96284042 -34.91637135 15.13701439 C-25.33527424 6.26175527 -13.23183194 0.02927073 0 0 Z M228.77112865 93.07451439 C228.07825756 93.41909691 227.38538647 93.76367943 226.67151928 94.11870384 C223.16387693 95.9127697 220.22412116 97.76924511 217.20862865 100.32451439 C212.68666212 103.25794527 207.83335828 101.54565129 202.89344311 100.54131126 C181.98832866 96.38573917 156.86997002 96.08090796 136.38831615 102.64873314 C132.01599049 103.57507332 128.6433045 102.11955859 124.96644115 99.80888939 C124.20194653 99.340718 123.4374519 98.87254662 122.64979076 98.39018822 C121.84420727 97.89414085 121.03862377 97.39809349 120.20862865 96.88701439 C109.26315551 90.3693727 98.21854405 84.74625864 85.08362865 86.13701439 C81.06374665 97.52356389 78.21015086 108.67437809 80.8844099 120.75420189 C83.12233905 130.95746177 83.12233905 130.95746177 80.13050365 135.88701439 C78.00294423 138.92435875 75.65007164 141.76991038 73.27796459 144.61797142 C65.94840447 153.94023697 65.71800049 166.42192376 65.77112865 177.69951439 C65.7767683 178.9437014 65.78240795 180.18788841 65.7882185 181.46977806 C66.07415376 203.1852869 71.38750632 221.65759503 86.39612865 237.88701439 C102.56979489 253.18445491 124.09680007 257.01545394 145.08362865 261.13701439 C144.58717846 261.59213402 144.09072826 262.04725365 143.57923412 262.51616478 C137.52932233 268.13369826 133.91865217 273.78677927 133.08362865 282.13701439 C127.03184672 283.93013496 121.29494454 284.38264855 115.02112865 284.44951439 C114.26589916 284.46691673 113.51066967 284.48431908 112.73255444 284.50224876 C105.04549778 284.49556582 98.7188055 282.54565147 93.08362865 277.13701439 C91.21989109 274.93299762 89.49444446 272.63908563 87.77112865 270.32451439 C80.11818878 259.97527428 80.11818878 259.97527428 69.08362865 254.13701439 C66.27636756 253.83742526 63.94479546 253.90627513 61.08362865 254.13701439 C59.3469035 255.57573879 59.3469035 255.57573879 58.08362865 257.13701439 C58.67530834 257.65650658 59.26698803 258.17599876 59.8765974 258.71123314 C69.03741013 266.79606134 74.87852344 273.89795584 80.52112865 284.69951439 C85.89621934 294.698339 91.23989294 300.14077155 101.9469099 304.23076439 C110.35188759 306.65910165 123.95390171 308.20187786 132.08362865 304.13701439 C132.01462045 309.03049688 131.92659122 313.92313556 131.82117748 318.81596947 C131.7879921 320.47928547 131.75994031 322.14271235 131.73719311 323.80620384 C131.70352867 326.20210938 131.65120926 328.59700474 131.5953474 330.99248314 C131.58895748 331.73225899 131.58256756 332.47203484 131.575984 333.23422813 C131.40995378 339.10864003 129.94911895 342.2908556 125.8219099 346.37529564 C125.02140209 347.05978783 124.22089428 347.74428001 123.39612865 348.44951439 C122.18376537 349.49558861 122.18376537 349.49558861 120.9469099 350.56279564 C120.33202709 351.08228783 119.71714428 351.60178001 119.08362865 352.13701439 C119.41362865 352.79701439 119.74362865 353.45701439 120.08362865 354.13701439 C138.17002004 355.16656909 156.22061016 355.29382761 174.32923412 355.26738548 C178.31004131 355.26164989 182.29078158 355.2650091 186.27158642 355.27095795 C189.39810708 355.274606 192.52461237 355.27340635 195.65113354 355.27083015 C197.11801188 355.27017462 198.58489173 355.27093971 200.0517683 355.27330971 C209.77227017 355.28559753 219.39529612 354.90175078 229.08362865 354.13701439 C229.08362865 353.14701439 229.08362865 352.15701439 229.08362865 351.13701439 C227.20329133 349.54252407 225.1921578 348.27316175 223.1265974 346.92998314 C219.83919677 344.0448648 218.29471488 341.03061227 217.80523205 336.63959312 C217.69004796 333.56134745 217.66882133 330.4947525 217.67737865 327.41435814 C217.66654247 326.2772892 217.65570629 325.14022026 217.64454174 323.96869469 C217.61033806 320.33724368 217.5947116 316.70610505 217.58362865 313.07451439 C217.56894586 308.31250029 217.53499266 303.55117073 217.48987865 298.78935814 C217.49289989 297.71596687 217.49592113 296.64257561 217.49903393 295.53665733 C217.39063519 284.37898271 216.19446301 273.38978834 208.08362865 265.13701439 C205.40026302 262.71873984 205.40026302 262.71873984 203.08362865 261.13701439 C204.70355894 259.5170841 206.67240169 259.66205336 208.90394115 259.34013939 C231.80026875 255.88721212 253.3235189 250.9330152 267.89612865 231.32451439 C274.67696377 220.93787048 277.24726042 210.19540437 279.08362865 198.13701439 C279.21640209 197.3493972 279.34917553 196.56178001 279.4859724 195.75029564 C282.71840678 173.21181487 278.27364902 151.81549961 265.08362865 133.13701439 C264.34757397 132.29525658 263.61151928 131.45349876 262.8531599 130.58623314 C261.08362865 128.13701439 261.08362865 128.13701439 260.91175365 126.05888939 C261.0509724 125.34217064 261.19019115 124.62545189 261.33362865 123.88701439 C263.06249379 111.82097646 263.7045862 97.86548975 257.8531599 86.81279564 C256.14300837 84.86055291 256.14300837 84.86055291 253.26331615 84.79326439 C244.52308146 85.73815463 236.56731634 89.18277811 228.77112865 93.07451439 Z " fill="#000000" transform="translate(48.91637134552002,0.8629856109619141)"/>
</svg>
