<?xml version="1.0" encoding="UTF-8"?>
<svg version="1.1" xmlns="http://www.w3.org/2000/svg" width="500" height="500">
<path d="M0 0 C1.16166722 -0.00525911 1.16166722 -0.00525911 2.34680247 -0.01062447 C4.93325799 -0.01990379 7.51948664 -0.01502417 10.10595131 -0.01015663 C11.98251485 -0.01389462 13.85907683 -0.01849674 15.73563635 -0.02388728 C20.88598939 -0.03611396 26.03627746 -0.0358572 31.18664169 -0.03349853 C36.74367332 -0.03309028 42.30068414 -0.04413013 47.85770607 -0.05361366 C58.74200353 -0.0702222 69.62627932 -0.07572312 80.51058839 -0.07683842 C89.35709296 -0.07778884 98.20359039 -0.08189885 107.0500927 -0.08823967 C128.05021989 -0.10298545 149.05034321 -0.11528947 170.05047607 -0.11424255 C170.72179718 -0.1142114 171.39311829 -0.11418024 172.08478246 -0.11414814 C175.48720614 -0.11398193 178.88962982 -0.11378384 182.29205351 -0.11357872 C182.96777036 -0.11353883 183.64348722 -0.11349894 184.33968034 -0.11345784 C185.70614339 -0.11337697 187.07260644 -0.11329337 188.43906948 -0.11320706 C209.70131793 -0.11198142 230.9635026 -0.12699849 252.2257328 -0.15435219 C276.121204 -0.18508096 300.01663364 -0.20225891 323.91213 -0.20042574 C336.56169064 -0.19976155 349.21117933 -0.20526701 361.8607235 -0.22678185 C372.62917884 -0.24497993 383.39752962 -0.24935212 394.16599368 -0.235763 C399.65988425 -0.22922683 405.15357412 -0.22913982 410.64744568 -0.2464695 C415.67845588 -0.26217597 420.70910584 -0.25936121 425.74010713 -0.24190123 C427.55833967 -0.23882605 429.37659893 -0.24248321 431.19479994 -0.25362138 C450.84914644 -0.36603142 450.84914644 -0.36603142 459.33999062 6.08148766 C460.09989296 7.00381187 460.09989296 7.00381187 460.87514687 7.94476891 C461.66211952 8.84775719 461.66211952 8.84775719 462.46499062 9.76898766 C467.93901416 19.01819984 467.36130324 28.69636125 467.31859779 39.05902672 C467.32205665 40.88354459 467.32682275 42.70806037 467.33277953 44.53257179 C467.3452878 49.53441485 467.33911987 54.5360859 467.32982087 59.53792953 C467.32303005 64.93677872 467.33351179 70.33559844 467.34176064 75.73444176 C467.35509978 86.30612703 467.3522194 96.87774841 467.34352271 107.44943619 C467.3367473 116.04135093 467.33582883 124.63324777 467.33909416 133.22516441 C467.33955386 134.44805617 467.34001356 135.67094792 467.34048719 136.930897 C467.34144637 139.41518562 467.34241901 141.89947423 467.34340496 144.38376284 C467.35195939 167.67840472 467.34212389 190.97301119 467.32600386 214.26764727 C467.31260064 234.25509673 467.31492872 254.24247573 467.32876015 274.22992516 C467.34481501 297.44127195 467.35113541 320.65258771 467.34192336 343.86393929 C467.34096771 346.33908398 467.3400246 348.81422869 467.33909416 351.2893734 C467.33863134 352.50718884 467.33816851 353.72500428 467.33769166 354.97972322 C467.33510149 363.56121901 467.33947335 372.14269511 467.34653282 380.72418785 C467.35494696 391.18229133 467.35266943 401.64032726 467.33669059 412.098423 C467.32880678 417.43419042 467.32571825 422.76984522 467.33563805 428.1056118 C467.34458302 432.99091898 467.33965519 437.87600922 467.32370539 442.76129675 C467.32035678 444.52766121 467.32205346 446.29404403 467.32933275 448.06039667 C467.4092764 469.07237704 467.4092764 469.07237704 460.87514687 476.56976891 C460.3685453 477.18465172 459.86194374 477.79953453 459.33999062 478.43305016 C450.09941348 485.44987865 439.52807088 484.82407748 428.49086952 484.76520348 C426.60845203 484.76981604 424.72603814 484.77617135 422.84363174 484.78411245 C417.68631513 484.80077992 412.52929535 484.79257107 407.37197781 484.78016758 C401.80406452 484.77110889 396.23620191 484.7850909 390.66829872 484.79608727 C379.76686429 484.81386827 368.86554005 484.81003432 357.96410131 484.7984367 C349.1038132 484.78940103 340.24355595 484.78817897 331.38326454 484.79253197 C330.12194194 484.7931449 328.86061935 484.79375783 327.56107485 484.79438934 C324.9986755 484.79566825 322.43627615 484.7969651 319.87387681 484.7982797 C296.53431772 484.80935921 273.19482928 484.79787179 249.85528389 484.77690931 C228.55913833 484.75792756 207.26308846 484.75962609 185.96694374 484.77875328 C162.0282323 484.80018214 138.08958062 484.80858566 114.15085602 484.79630423 C111.59791375 484.79503004 109.04497147 484.79377255 106.49202919 484.79253197 C104.60791326 484.79160631 104.60791326 484.79160631 102.68573439 484.79066196 C93.8366884 484.78720911 84.98767637 484.79303602 76.13863564 484.80245018 C65.35374846 484.81367166 54.56897772 484.81062686 43.78410387 484.7893272 C38.28210638 484.77881892 32.78030299 484.77469136 27.27830696 484.78792381 C22.23996207 484.79985786 17.20199091 484.79326819 12.16367984 484.7720136 C10.34282066 484.76755188 8.52192979 484.76980414 6.70109105 484.77951676 C-12.97930669 484.87642775 -12.97930669 484.87642775 -21.46469688 478.43305016 C-22.22459923 477.51072594 -22.22459923 477.51072594 -22.99985313 476.56976891 C-23.78682579 475.66678062 -23.78682579 475.66678062 -24.58969688 474.74555016 C-30.06477921 465.49454898 -29.48600067 455.81348015 -29.44330406 445.44878197 C-29.44676291 443.62355141 -29.451529 441.79832293 -29.4574858 439.97309881 C-29.46999405 434.96932516 -29.46382616 429.96572345 -29.45452714 424.96194923 C-29.44773636 419.56107417 -29.458218 414.16022856 -29.4664669 408.75935936 C-29.47980582 398.18399908 -29.47692585 387.60870269 -29.46822898 377.03333991 C-29.46145384 368.4390329 -29.46053498 359.84474379 -29.46380043 351.25043488 C-29.46426013 350.0272544 -29.46471983 348.80407392 -29.46519346 347.54382737 C-29.46615263 345.05897302 -29.46712527 342.57411868 -29.46811123 340.08926434 C-29.4766655 316.78988383 -29.46683022 293.49053873 -29.45071013 270.19116402 C-29.43730524 250.19714359 -29.43963639 230.2031936 -29.45346642 210.2091732 C-29.46951867 186.99161006 -29.47584329 163.77407795 -29.46662962 140.55651003 C-29.46567397 138.08110242 -29.46473086 135.6056948 -29.46380043 133.13028717 C-29.4633376 131.91233102 -29.46287478 130.69437487 -29.46239793 129.43951095 C-29.4598071 120.8545397 -29.464181 112.26958811 -29.47123909 103.6846199 C-29.47965026 93.22392598 -29.47738191 82.76329961 -29.46139686 72.30261343 C-29.45350929 66.96494465 -29.45043093 61.6273885 -29.46034431 56.28972054 C-29.46928142 51.40384881 -29.46437447 46.51819419 -29.44841166 41.63234217 C-29.44505973 39.86464961 -29.44676718 38.09693873 -29.45403902 36.32925796 C-29.46316846 33.92570811 -29.45379811 31.52290078 -29.43987656 29.11938953 C-29.44690005 28.43385759 -29.45392355 27.74832564 -29.46115988 27.04201999 C-29.38312042 20.29597362 -27.29382556 14.28591925 -23.12485313 8.94476891 C-22.6414547 8.30926109 -22.15805626 7.67375328 -21.66000938 7.01898766 C-15.83673277 0.59772175 -8.29540828 -0.04829244 0 0 Z M70.56264687 128.50726891 C64.02156695 136.882816 62.78093217 146.75100216 62.8039341 157.08630943 C62.80166854 157.84406992 62.79940298 158.60183041 62.79706877 159.38255334 C62.79077085 161.90558629 62.79155542 164.42856494 62.79238319 166.95160484 C62.78938905 168.76727937 62.78598593 170.58295327 62.78220558 172.39862633 C62.77338677 177.32028445 62.77102834 182.24192517 62.7703898 187.16359043 C62.76967802 190.24204183 62.76754128 193.32048883 62.76489258 196.39893913 C62.75564576 207.14891909 62.75155681 217.89888666 62.75234413 228.64887047 C62.75294456 238.65252389 62.74239787 248.65612333 62.72660047 258.6597631 C62.71350241 267.26213068 62.7081612 275.86448067 62.70879954 284.46685815 C62.70905389 289.59850924 62.70623784 294.73011235 62.69562149 299.86175346 C62.68590248 304.69135553 62.68588731 309.52086412 62.69313812 314.35046959 C62.69417929 316.1164444 62.69184908 317.88242514 62.68577766 319.64838982 C62.58923037 340.40941982 62.58923037 340.40941982 72.57045937 358.07367516 C81.71850665 366.56221205 92.30978939 367.41046079 104.20310402 367.39098167 C105.22291743 367.39324723 106.24273083 367.39551279 107.29344767 367.397847 C110.70326068 367.40416612 114.11303373 367.40335897 117.52285194 367.40253258 C119.97068267 367.40552536 122.41851292 367.40892817 124.86634254 367.41271019 C130.82110889 367.42062505 136.77585958 367.42376431 142.73062972 367.42432257 C147.57305593 367.42479847 152.41547888 367.42685692 157.25790405 367.43002319 C171.00027414 367.43882534 184.74263643 367.44344324 198.48500935 367.44269272 C199.59525511 367.44263279 199.59525511 367.44263279 200.72793007 367.44257164 C201.83953819 367.44251032 201.83953819 367.44251032 202.97360303 367.44244776 C214.98122199 367.44204139 226.98880958 367.45160988 238.99641947 367.46571001 C251.33868704 367.48008826 263.68093932 367.4869794 276.02321547 367.48611623 C282.94726461 367.48578477 289.87128085 367.48850962 296.79532242 367.49929428 C303.30831919 367.50937407 309.82125847 367.50904914 316.33426285 367.50177765 C318.72149189 367.50073278 321.10872528 367.5030889 323.49594688 367.50913811 C326.76112543 367.51687466 330.02606525 367.51220207 333.29123878 367.50450706 C334.69948952 367.51222241 334.69948952 367.51222241 336.13618976 367.52009362 C347.52465635 367.46101113 357.08499563 365.40406766 365.75795937 357.62445641 C373.81621585 348.9182999 375.09693728 338.75249959 375.07135963 327.30797386 C375.07362519 326.54935895 375.07589075 325.79074403 375.07822496 325.00914079 C375.08451104 322.48921385 375.08373909 319.96934144 375.08291054 317.44940758 C375.08590539 315.63358555 375.08930867 313.81776415 375.09308815 312.00194359 C375.10189894 307.08447678 375.10426503 302.16702738 375.10490394 297.24955344 C375.10561607 294.17327428 375.10775348 291.09699951 375.11040115 288.02072144 C375.11964474 277.27722074 375.12373725 266.53373243 375.1229496 255.79022789 C375.122349 245.79393808 375.13289995 235.79770226 375.14869326 225.80142611 C375.16179098 217.20328461 375.16713256 208.60516072 375.16649419 200.00700933 C375.16623987 194.87872658 375.16905462 189.75049185 375.17967224 184.62221909 C375.18939089 179.79670762 375.18940667 174.97128971 375.18215561 170.14577484 C375.18111446 168.38141174 375.18344457 166.6170427 375.18951607 164.85268974 C375.28442918 144.0987248 375.28442918 144.0987248 365.30483437 126.44086266 C356.15678708 117.95232576 345.56550435 117.10407702 333.67218971 117.12355614 C332.65237631 117.12129058 331.6325629 117.11902502 330.58184606 117.11669081 C327.17203305 117.11037169 323.76226 117.11117884 320.35244179 117.11200523 C317.90461107 117.10901245 315.45678082 117.10560964 313.00895119 117.10182762 C307.05418485 117.09391276 301.09943416 117.0907735 295.14466401 117.09021524 C290.30223781 117.08973934 285.45981485 117.08768089 280.61738968 117.08451462 C266.87501959 117.07571247 253.13265731 117.07109457 239.39028438 117.07184509 C238.28003863 117.07190503 238.28003863 117.07190503 237.14736366 117.07196617 C236.03575555 117.07202749 236.03575555 117.07202749 234.9016907 117.07209005 C222.89407174 117.07249643 210.88648415 117.06292793 198.87887426 117.0488278 C186.5366067 117.03444956 174.19435441 117.02755841 161.85207826 117.02842158 C154.92802912 117.02875304 148.00401288 117.02602819 141.07997131 117.01524353 C134.56697455 117.00516374 128.05403526 117.00548867 121.54103088 117.01276016 C119.15380184 117.01380503 116.76656846 117.01144891 114.37934685 117.0053997 C111.11416831 116.99766315 107.84922848 117.00233574 104.58405495 117.01003075 C103.64522113 117.00488718 102.7063873 116.99974362 101.73910397 116.99444419 C89.691842 117.05694446 79.1000213 119.43362723 70.56264687 128.50726891 Z " fill="#050505" transform="translate(31.062353134155273,7.742731094360352)"/>
<path d="M0 0 C24.0615866 0 24.0615866 0 30.875 5.125 C32.52641419 6.23315736 34.17879976 7.33986816 35.83203125 8.4453125 C36.66943848 9.02829102 37.5068457 9.61126953 38.36962891 10.21191406 C42.9761131 13.34333138 47.78331873 16.14249667 52.5625 19 C64.07405864 25.99352443 75.50697129 33.11806111 86.796875 40.46484375 C93.63426446 44.91185793 100.55259469 49.08700253 107.6640625 53.07421875 C111.75603373 55.4364457 115.68496635 58.00570143 119.59765625 60.65234375 C122.27674875 62.1552493 123.9161623 62.92569066 127 63 C129.34418052 61.78150515 131.30490612 60.57951834 133.4375 59.0625 C134.6919054 58.21173174 135.94847351 57.36414475 137.20703125 56.51953125 C137.84205566 56.0910791 138.47708008 55.66262695 139.13134766 55.22119141 C141.88512746 53.42155637 144.74661967 51.84077351 147.625 50.25 C154.32042843 46.5127509 160.70450132 42.34485413 167.11254883 38.13867188 C179.6950948 29.89497575 192.47594066 21.89157596 205.4831543 14.33129883 C208.84167587 12.3669664 212.03100597 10.28641726 215.18359375 8.00390625 C226.40474567 0.12395377 236.27705597 -2.25185286 250 0 C251.68080007 1.68080007 251.12473128 3.74874742 251.13374341 5.99261856 C251.13151268 6.71273998 251.12928196 7.4328614 251.12698364 8.17480469 C251.12854363 8.93449429 251.13010362 9.69418388 251.13171089 10.47689438 C251.1357238 13.04190721 251.13253013 15.60686165 251.12939453 18.171875 C251.13074844 20.00288935 251.13252832 21.83390343 251.13470459 23.66491699 C251.13928012 28.65237592 251.13748887 33.63981426 251.1343255 38.62727356 C251.13180252 43.8345241 251.13413927 49.04177283 251.13571167 54.24902344 C251.13753355 62.99544594 251.13512658 71.74186002 251.13037109 80.48828125 C251.12492844 90.6158249 251.12669108 100.74334841 251.1321975 110.87089157 C251.13672812 119.54941353 251.13737943 128.22792942 251.13475883 136.90645218 C251.13319577 142.09710266 251.13300307 147.28774367 251.13629532 152.47839355 C251.13917329 157.35711108 251.13719971 162.23580252 251.13140106 167.11451721 C251.13007306 168.91048642 251.13046825 170.70645779 251.13266373 172.50242615 C251.13537368 174.94337935 251.13199603 177.38424761 251.12698364 179.82519531 C251.12921436 180.54531673 251.13144509 181.26543816 251.13374341 182.00738144 C251.11414986 186.88585014 251.11414986 186.88585014 250 188 C239.44 188 228.88 188 218 188 C217.67 143.45 217.34 98.9 217 53 C210.14271137 57.36372913 203.30374549 61.74280368 196.5 66.1875 C186.72677467 72.55487639 176.88170187 78.80263014 167 85 C166.32549805 85.42345703 165.65099609 85.84691406 164.95605469 86.28320312 C155.63460588 92.13286419 146.28065717 97.9296694 136.91650391 103.71069336 C136.0610498 104.23928955 135.2055957 104.76788574 134.32421875 105.3125 C133.56197998 105.78300781 132.79974121 106.25351562 132.0144043 106.73828125 C130.32455037 107.79671842 128.65907898 108.89394735 127 110 C121.93278966 109.83624814 117.96062499 106.7558563 113.8125 104.125 C112.18507201 103.11039444 110.55746307 102.09607907 108.9296875 101.08203125 C108.10436523 100.56463379 107.27904297 100.04723633 106.42871094 99.51416016 C103.49426633 97.68470444 100.53697353 95.89514953 97.57714844 94.10717773 C87.32241054 87.90214863 77.24337746 81.42792216 67.16015625 74.94921875 C60.88907893 70.92178703 54.59052729 66.93904361 48.27563477 62.98071289 C43.11823525 59.73869824 38.07389441 56.38259627 33 53 C32.67 97.55 32.34 142.1 32 188 C21.44 188 10.88 188 0 188 C0 125.96 0 63.92 0 0 Z " fill="#0A0A0A" transform="translate(125,156)"/>
<path d="M0 0 C0 4.16725696 -1.29551677 5.87944243 -4 9 C-7.75 9.375 -7.75 9.375 -11 9 C-9.948125 8.1646875 -9.948125 8.1646875 -8.875 7.3125 C-5.88655739 4.90875268 -2.94059762 2.46189568 0 0 Z " fill="#868686" transform="translate(398,363)"/>
</svg>
